<mxfile host="app.diagrams.net" modified="2023-05-29T07:16:08.679Z" agent="Mozilla/5.0 (Macintosh; Intel Mac OS X 10.15; rv:109.0) Gecko/20100101 Firefox/113.0" version="21.3.3" etag="vtHlIjDRxxDrPKaA4EXN" type="github">
  <diagram name="Page-1" id="tE6ixngOt_Q8rVskvVIQ">
    <mxGraphModel>
      <root>
        <mxCell id="0" />
        <mxCell id="1" parent="0" />
      </root>
    </mxGraphModel>
  </diagram>
</mxfile>
